<svg xmlns="http://www.w3.org/2000/svg" width="24" height="24" viewBox="0 0 24 24">
  <path id="times-circle-solid" d="M20,8A12,12,0,1,0,32,20,12,12,0,0,0,20,8Zm5.884,15.15a.581.581,0,0,1,0,.823l-1.916,1.911a.581.581,0,0,1-.823,0L20,22.71l-3.15,3.174a.581.581,0,0,1-.823,0l-1.911-1.916a.581.581,0,0,1,0-.823L17.29,20l-3.174-3.15a.581.581,0,0,1,0-.823l1.916-1.916a.581.581,0,0,1,.823,0L20,17.29l3.15-3.174a.581.581,0,0,1,.823,0l1.916,1.916a.581.581,0,0,1,0,.823L22.71,20Z" transform="translate(-8 -8)" fill="#fff" opacity="0.9"/>
</svg>
